<svg xmlns="http://www.w3.org/2000/svg" width="800" height="800" viewBox="0 0 20 20">
<path d="m9.744 3-.504.053-.496.103-.484.153-.465.197-.441.246-.417.289-.384.332-.35.367-.308.399-.27.43-.223.454-.175.477-.127.488-.077.502-.025.506.025.818.077.817.129.808.18.8.228.786.279.772.326.75.373.728.418.705.463.678.504.647.543.613h.002l.24.217.276.174.296.128.317.08.324.034.324-.033.315-.08.299-.13.275-.173.242-.217.543-.613.502-.647.465-.678.416-.705.373-.728.326-.75.28-.772.23-.787.178-.799.129-.808.076-.817.027-.818-.027-.506-.076-.502-.125-.488-.178-.477-.223-.455-.265-.43-.311-.398-.352-.367-.384-.332-.414-.289-.442-.246-.467-.197-.484-.153-.496-.103L10.25 3h-.506zm.254.996.447.025.444.075.431.125.412.172.395.216.365.26.334.299.299.334.26.365.217.393.171.416.125.43.077.44.023.448-.023.758-.073.752-.119.746-.164.74-.213.725-.256.71-.302.696-.344.672-.387.65-.424.625-.466.596-.5.566-.157.135-.175.098-.194.058-.203.028-.203-.028-.193-.058-.176-.098-.156-.135-.5-.566-.467-.596-.424-.625-.387-.65-.344-.672-.302-.695-.256-.711-.213-.725-.164-.74-.12-.746-.072-.752-.023-.758.025-.447.075-.442.123-.43.172-.415.218-.393.26-.365.299-.334.334-.299.365-.26.393-.216.416-.172.43-.125.44-.075.45-.025zm-.082 1.998-.318.04-.309.091-.291.135-.266.183-.23.223-.193.258-.15.287-.104.305-.051.316v.324l.05.317.104.304.15.286.194.257.23.221.266.184.291.138.309.09.318.04.322-.007.317-.066.3-.115.28-.16.25-.204.213-.24.172-.273.125-.295.078-.313.025-.322v-.002l-.025-.32-.078-.313-.125-.297-.172-.271-.213-.24-.25-.207-.28-.16-.3-.114-.317-.066-.322-.014zm.082 1 .22.027.214.075.19.119.16.158.118.188.073.212.025.223-.025.22-.073.214-.119.19-.16.16-.19.118-.212.075-.221.025-.223-.025-.213-.075-.187-.119-.158-.16-.12-.19-.074-.212-.025-.22.025-.224.075-.212.119-.188.158-.158.188-.12.212-.074.223-.027z" style="fill:#9BA3AF;fill-opacity:1;stroke:none;stroke-width:0"/>
</svg>