<svg xmlns="http://www.w3.org/2000/svg" height="65" width="340">
<g style="font-style:normal;font-weight:500;font-size:72px;line-height:1;font-family:&quot;Raleway Medium Alt1&quot;;font-variant-ligatures:none;text-align:center;text-anchor:middle" fill="#e9eef3"><path style="font-style:normal;font-weight:500;font-size:72px;line-height:1;font-family:&quot;Raleway Medium Alt1&quot;;font-variant-ligatures:none;text-align:center;text-anchor:middle" d="M364.417-51.12V0h6.48v-39.528l11.448 20.448 3.456-5.904-14.544-26.136zm43.92 0L389.76-17.928l-3.384 5.904 1.584 2.808h3.672l16.992-30.312V0h6.48v-51.12zM433.756-51.048h-6.48v26.784l6.48-6.984zm12.816 22.464 20.52-22.536h-6.984l-26.352 28.296-6.48 6.912V0h6.48v-15.624l8.856-9.216L461.188 0h7.056zM474.245 0h6.48v-51.12h-6.48zm34.632-51.12v22.104h-22.392v5.76h22.392V0h6.48v-51.12zM535.76.72c2.88 0 5.616-.576 8.208-1.728 2.592-1.152 4.68-2.88 6.408-5.184l.144 2.664c.144 1.08.576 2.016 1.296 2.736.72.72 1.728 1.08 3.024 1.08.432 0 .936 0 1.368-.072.432 0 .936-.072 1.656-.216v-5.472c-1.368 0-2.016-.792-2.016-2.304v-15.336c0-4.752-1.44-8.496-4.176-11.16-2.736-2.592-6.624-3.96-11.52-3.96s-9.792 1.656-14.616 4.896l2.088 4.104c4.176-2.88 8.136-4.392 11.952-4.392 3.168 0 5.616.936 7.344 2.664 1.728 1.728 2.592 4.176 2.592 7.2v3.024c-1.44-.576-3.096-1.008-4.968-1.368-1.872-.288-3.744-.504-5.544-.504-2.304 0-4.464.288-6.408.864-1.944.576-3.6 1.368-5.04 2.376-1.44 1.008-2.52 2.232-3.24 3.672-.792 1.44-1.152 2.952-1.152 4.68 0 1.728.288 3.24.936 4.68.648 1.44 1.512 2.664 2.664 3.672 1.152 1.08 2.448 1.944 4.032 2.52 1.512.576 3.168.864 4.968.864zm1.656-4.752c-1.152 0-2.232-.144-3.24-.576-1.008-.36-1.944-.864-2.664-1.584a7.225 7.225 0 0 1-1.728-2.376c-.432-.864-.576-1.872-.576-2.952 0-2.16.936-3.888 2.952-5.256 2.016-1.296 4.608-2.016 7.776-2.016 3.312 0 6.48.648 9.576 1.8v5.544c0 1.008-.504 1.944-1.368 2.808-1.008 1.44-2.52 2.52-4.464 3.384-1.944.864-4.032 1.224-6.264 1.224zM566.05 0h6.336v-37.584h-6.336zm0-44.64h6.336v-7.92h-6.336zM602.515-32.04v-5.76c-.288 0-.576-.072-.864-.072h-1.224c-2.448.216-4.68 1.152-6.768 2.736-2.16 1.584-3.816 3.672-5.112 6.264v-8.712h-5.904V0h6.336v-23.184c1.008-2.736 2.664-4.824 5.112-6.408 2.448-1.512 5.256-2.304 8.424-2.448zM604.92 0h5.328v-8.064h-5.328zM621.925 0h6.336v-32.616h10.008v-4.968H628.26v-1.008c0-3.024.504-5.328 1.656-6.912 1.08-1.584 2.664-2.376 4.824-2.376.936 0 1.872.144 2.88.432 1.008.288 1.8.72 2.52 1.152l1.584-4.68c-1.152-.72-2.448-1.224-3.888-1.656a15.451 15.451 0 0 0-4.392-.648c-3.6 0-6.408 1.368-8.424 3.96-2.088 2.664-3.096 6.336-3.096 10.944v.792h-5.112v4.968h5.112zM664.53-32.04v-5.76c-.287 0-.575-.072-.863-.072h-1.224c-2.448.216-4.68 1.152-6.768 2.736-2.16 1.584-3.816 3.672-5.112 6.264v-8.712h-5.904V0h6.336v-23.184c1.008-2.736 2.664-4.824 5.112-6.408 2.448-1.512 5.256-2.304 8.424-2.448z" transform="matrix(1.11 0 0 1.11 -400.066 60)"/></g>
</svg>